<?xml version="1.0" encoding="utf-8"?>
<!-- created with cmmn-js / http://bpmn.io -->
<!DOCTYPE svg PUBLIC "-//W3C//DTD SVG 1.1//EN" "http://www.w3.org/Graphics/SVG/1.1/DTD/svg11.dtd">
<svg xmlns="http://www.w3.org/2000/svg" xmlns:xlink="http://www.w3.org/1999/xlink" width="632" height="482" viewBox="150 75 632 482" version="1.1"><defs><marker id="association-start" viewBox="0 0 20 20" refX="1" refY="10" markerWidth="10" markerHeight="10" orient="auto"><path d="M 11 5 L 1 10 L 11 15" style="fill: none; stroke-width: 1.5px; stroke-linecap: round; stroke-dasharray: 10000, 1; stroke: black;"></path></marker><marker id="association-end" viewBox="0 0 20 20" refX="12" refY="10" markerWidth="10" markerHeight="10" orient="auto"><path d="M 1 5 L 11 10 L 1 15" style="fill: none; stroke-width: 1.5px; stroke-linecap: round; stroke-dasharray: 10000, 1; stroke: black;"></path></marker></defs><g class="djs-group"><g class="djs-element djs-shape" data-element-id="CasePlanModel_139fmgq" style="display: block;" transform="matrix(1 0 0 1 156 99)"><g class="djs-visual"><rect x="0" y="0" width="620" height="452" rx="0" ry="0" style="stroke: black; stroke-width: 2px; fill: white; fill-opacity: 0.95;"/><polygon points="10,0 20,-18 101.09375,-18 111.09375,0" style="fill: white; stroke: black; stroke-width: 2px; fill-opacity: 0.95; pointer-events: all;"/><text class="djs-label" style="font-family: Arial, sans-serif; font-size: 12px;" transform="matrix(1 0 0 1 25 -13)"><tspan x="0" y="10.20703125">Emergency</tspan></text><rect x="0" y="0" width="30" height="24" rx="0" ry="0" style="stroke: black; stroke-width: 1.5px; fill: white;" transform="matrix(1 0 0 1 295 -17)"/><path d="m295,-17 m 0,12 l 30,0 m -20,-12 l 0, 24 m 10, -24 l 0, 24 m -10, -6 l 10,0" style="fill: none; stroke-width: 1.5px; stroke: black;"/></g><rect class="djs-hit djs-hit-all" x="0" y="0" width="620" height="452" style="fill: none; stroke-opacity: 0; stroke: white; stroke-width: 15px;"/><rect x="-6" y="-24" width="632" height="482" class="djs-outline" style="fill: none;"/></g><g class="djs-children"><g class="djs-group"><g class="djs-element djs-shape" data-element-id="CaseFileItem_0uo3z6s" style="display: block;" transform="matrix(1 0 0 1 317 403)"><g class="djs-visual"><path d="m 0,0 28.23529411764706,0 7.058823529411765,8.196721311475411 0,40.98360655737705 -35.294117647058826,0 0,-49.18032786885246 28.23529411764706,0 0,8.196721311475411 7.058823529411765,0" style="fill: white; stroke-width: 2px; stroke: black;"/></g><rect class="djs-hit djs-hit-all" x="0" y="0" width="36" height="50" style="fill: none; stroke-opacity: 0; stroke: white; stroke-width: 15px;"/><rect x="-6" y="-6" width="48" height="62" class="djs-outline" style="fill: none;"/></g></g><g class="djs-group"><g class="djs-element djs-shape" data-element-id="CaseFileItem_0uo3z6s_label" style="display: block;" transform="matrix(1 0 0 1 304 453)"><g class="djs-visual"><text class="djs-label" transform="translate(-14.984375,0)" style="font-family: Arial, sans-serif; font-size: 11px;"><tspan x="14.984375" y="9.01171875">Taken drugs</tspan></text></g><rect class="djs-hit djs-hit-all" x="0" y="0" width="61" height="13" style="fill: none; stroke-opacity: 0; stroke: white; stroke-width: 15px;"/><rect x="-6" y="-6" width="73" height="25" class="djs-outline" style="fill: none;"/></g></g><g class="djs-group"><g class="djs-element djs-shape" data-element-id="PlanItem_0hxsdjc" style="display: block;" transform="matrix(1 0 0 1 400 261)"><g class="djs-visual"><polygon points="20,267 0,247 0,20 20,0 325,0 345,20 345,247 325,267" style="fill-opacity: 0.95; stroke-dasharray: 10, 12; fill: white; stroke: black; stroke-width: 2px;"/><text class="djs-label" style="font-family: Arial, sans-serif; font-size: 12px;" transform="matrix(1 0 0 1 20 0)"><tspan x="5" y="15.20703125"/></text><rect x="0" y="0" width="30" height="24" rx="0" ry="0" style="stroke: black; stroke-width: 1.5px; fill: white;" transform="matrix(1 0 0 1 157.5 -17)"/><path d="m157.5,-17 m 0,12 l 30,0 m -20,-12 l 0, 24 m 10, -24 l 0, 24 m -10, -6 l 10,0" style="fill: none; stroke-width: 1.5px; stroke: black;"/><rect x="0" y="0" width="14" height="14" rx="0" ry="0" style="stroke: black; stroke-width: 1px; fill: white;" transform="matrix(1 0 0 1 165.5 250)"/><path d="m165.5,250 m 2,7 l 10,0" style="fill: none; stroke-width: 2px; stroke: black;"/></g><rect class="djs-hit djs-hit-all" x="0" y="0" width="345" height="267" style="fill: none; stroke-opacity: 0; stroke: white; stroke-width: 15px;"/><rect x="-6" y="-6" width="357" height="279" class="djs-outline" style="fill: none;"/></g><g class="djs-children"><g class="djs-group"><g class="djs-element djs-shape" data-element-id="PlanItem_0au0b6y" style="display: block;" transform="matrix(1 0 0 1 494 281)"><g class="djs-visual"><rect x="0" y="0" width="100" height="80" rx="10" ry="10" style="stroke: black; stroke-width: 2px; fill: white; stroke-dasharray: 12, 12.4; stroke-dashoffset: 13.6;"/><text class="djs-label" style="font-family: Arial, sans-serif; font-size: 12px;"><tspan x="22.9765625" y="43.40234375">Blood test</tspan></text><path d="m43,63 m 3,0 l 0,14 m 6,-14 l 0,14 m -10,-10 l 14,0 m -14,6 l 14,0" style="fill: none; stroke-width: 2px; stroke: black;"/><path d="m 15,12 c 0.909,-0.845 1.594,-2.049 1.594,-3.385 0,-2.554 -1.805,-4.62199999 -4.357,-4.62199999 -2.55199998,0 -4.28799998,2.06799999 -4.28799998,4.62199999 0,1.348 0.974,2.562 1.89599998,3.405 -0.52899998,0.187 -5.669,2.097 -5.794,4.7560005 v 6.718 h 17 v -6.718 c 0,-2.2980005 -5.5279996,-4.5950005 -6.0509996,-4.7760005 zm -8,6 l 0,5.5 m 11,0 l 0,-5" style="fill: none; stroke-width: 0.5px; stroke: black;"/><path d="m 15,12 m 2.162,1.009 c 0,2.4470005 -2.158,4.4310005 -4.821,4.4310005 -2.66499998,0 -4.822,-1.981 -4.822,-4.4310005" style="fill: none; stroke-width: 0.5px; stroke: black;"/><path d="m 15,12 m -6.9,-3.80 c 0,0 2.25099998,-2.358 4.27399998,-1.177 2.024,1.181 4.221,1.537 4.124,0.965 -0.098,-0.57 -0.117,-3.79099999 -4.191,-4.13599999 -3.57499998,0.001 -4.20799998,3.36699999 -4.20699998,4.34799999 z" style="fill: black; stroke-width: 0.5px; stroke: black;"/></g><rect class="djs-hit djs-hit-all" x="0" y="0" width="100" height="80" style="fill: none; stroke-opacity: 0; stroke: white; stroke-width: 15px;"/><rect x="-6" y="-6" width="112" height="92" class="djs-outline" style="fill: none;"/></g></g><g class="djs-group"><g class="djs-element djs-shape" data-element-id="PlanItem_1hx19q3" style="display: block;" transform="matrix(1 0 0 1 494 375)"><g class="djs-visual"><rect x="0" y="0" width="100" height="80" rx="10" ry="10" style="stroke: black; stroke-width: 2px; fill: white; stroke-dasharray: 12, 12.4; stroke-dashoffset: 13.6;"/><text class="djs-label" style="font-family: Arial, sans-serif; font-size: 12px;"><tspan x="36.1953125" y="43.40234375">X ray</tspan></text><path d="m43,63 m 3,0 l 0,14 m 6,-14 l 0,14 m -10,-10 l 14,0 m -14,6 l 14,0" style="fill: none; stroke-width: 2px; stroke: black;"/><path d="m 15,12 c 0.909,-0.845 1.594,-2.049 1.594,-3.385 0,-2.554 -1.805,-4.62199999 -4.357,-4.62199999 -2.55199998,0 -4.28799998,2.06799999 -4.28799998,4.62199999 0,1.348 0.974,2.562 1.89599998,3.405 -0.52899998,0.187 -5.669,2.097 -5.794,4.7560005 v 6.718 h 17 v -6.718 c 0,-2.2980005 -5.5279996,-4.5950005 -6.0509996,-4.7760005 zm -8,6 l 0,5.5 m 11,0 l 0,-5" style="fill: none; stroke-width: 0.5px; stroke: black;"/><path d="m 15,12 m 2.162,1.009 c 0,2.4470005 -2.158,4.4310005 -4.821,4.4310005 -2.66499998,0 -4.822,-1.981 -4.822,-4.4310005" style="fill: none; stroke-width: 0.5px; stroke: black;"/><path d="m 15,12 m -6.9,-3.80 c 0,0 2.25099998,-2.358 4.27399998,-1.177 2.024,1.181 4.221,1.537 4.124,0.965 -0.098,-0.57 -0.117,-3.79099999 -4.191,-4.13599999 -3.57499998,0.001 -4.20799998,3.36699999 -4.20699998,4.34799999 z" style="fill: black; stroke-width: 0.5px; stroke: black;"/></g><rect class="djs-hit djs-hit-all" x="0" y="0" width="100" height="80" style="fill: none; stroke-opacity: 0; stroke: white; stroke-width: 15px;"/><rect x="-6" y="-6" width="112" height="92" class="djs-outline" style="fill: none;"/></g></g><g class="djs-group"><g class="djs-element djs-shape" data-element-id="EntryCriterion_0p41u5r" style="display: block;" transform="matrix(1 0 0 1 484 308)"><g class="djs-visual"><polygon points="10,0 20,14 10,28 0,14" style="stroke: black; stroke-width: 2px; fill: white;"/></g><rect class="djs-hit djs-hit-all" x="0" y="0" width="20" height="28" style="fill: none; stroke-opacity: 0; stroke: white; stroke-width: 15px;"/><rect x="-6" y="-6" width="32" height="40" class="djs-outline" style="fill: none;"/></g></g></g></g><g class="djs-group"><g class="djs-element djs-shape" data-element-id="PlanItem_0itxdn3" style="display: block;" transform="matrix(1 0 0 1 186 171)"><g class="djs-visual"><rect x="0" y="0" width="100" height="80" rx="10" ry="10" style="stroke: black; stroke-width: 2px; fill: white;"/><text class="djs-label" style="font-family: Arial, sans-serif; font-size: 12px;"><tspan x="32.9453125" y="43.40234375">Triage</tspan></text><path d="m49.5,63 l 0,9 m 0,2 l0,3" style="fill: none; stroke-width: 3px; stroke: black;"/><path d="m 15,12 c 0.909,-0.845 1.594,-2.049 1.594,-3.385 0,-2.554 -1.805,-4.62199999 -4.357,-4.62199999 -2.55199998,0 -4.28799998,2.06799999 -4.28799998,4.62199999 0,1.348 0.974,2.562 1.89599998,3.405 -0.52899998,0.187 -5.669,2.097 -5.794,4.7560005 v 6.718 h 17 v -6.718 c 0,-2.2980005 -5.5279996,-4.5950005 -6.0509996,-4.7760005 zm -8,6 l 0,5.5 m 11,0 l 0,-5" style="fill: none; stroke-width: 0.5px; stroke: black;"/><path d="m 15,12 m 2.162,1.009 c 0,2.4470005 -2.158,4.4310005 -4.821,4.4310005 -2.66499998,0 -4.822,-1.981 -4.822,-4.4310005" style="fill: none; stroke-width: 0.5px; stroke: black;"/><path d="m 15,12 m -6.9,-3.80 c 0,0 2.25099998,-2.358 4.27399998,-1.177 2.024,1.181 4.221,1.537 4.124,0.965 -0.098,-0.57 -0.117,-3.79099999 -4.191,-4.13599999 -3.57499998,0.001 -4.20799998,3.36699999 -4.20699998,4.34799999 z" style="fill: black; stroke-width: 0.5px; stroke: black;"/><rect x="0" y="0" width="30" height="24" rx="0" ry="0" style="stroke: black; stroke-width: 1.5px; fill: white;" transform="matrix(1 0 0 1 35 -17)"/><path d="m35,-17 m 0,12 l 30,0 m -20,-12 l 0, 24 m 10, -24 l 0, 24 m -10, -6 l 10,0" style="fill: none; stroke-width: 1.5px; stroke: black;"/></g><rect class="djs-hit djs-hit-all" x="0" y="0" width="100" height="80" style="fill: none; stroke-opacity: 0; stroke: white; stroke-width: 15px;"/><rect x="-6" y="-6" width="112" height="92" class="djs-outline" style="fill: none;"/></g></g><g class="djs-group"><g class="djs-element djs-shape" data-element-id="PlanItem_18hv8o0" style="display: block;" transform="matrix(1 0 0 1 438 114)"><g class="djs-visual"><rect x="0" y="0" width="100" height="80" rx="10" ry="10" style="stroke: black; stroke-width: 2px; fill: white;"/><text class="djs-label" style="font-family: Arial, sans-serif; font-size: 12px;"><tspan x="10.71875" y="43.40234375">Physician care</tspan></text><path d="m49.5,63 l 0,9 m 0,2 l0,3" style="fill: none; stroke-width: 3px; stroke: black;"/><path d="m 15,12 c 0.909,-0.845 1.594,-2.049 1.594,-3.385 0,-2.554 -1.805,-4.62199999 -4.357,-4.62199999 -2.55199998,0 -4.28799998,2.06799999 -4.28799998,4.62199999 0,1.348 0.974,2.562 1.89599998,3.405 -0.52899998,0.187 -5.669,2.097 -5.794,4.7560005 v 6.718 h 17 v -6.718 c 0,-2.2980005 -5.5279996,-4.5950005 -6.0509996,-4.7760005 zm -8,6 l 0,5.5 m 11,0 l 0,-5" style="fill: none; stroke-width: 0.5px; stroke: black;"/><path d="m 15,12 m 2.162,1.009 c 0,2.4470005 -2.158,4.4310005 -4.821,4.4310005 -2.66499998,0 -4.822,-1.981 -4.822,-4.4310005" style="fill: none; stroke-width: 0.5px; stroke: black;"/><path d="m 15,12 m -6.9,-3.80 c 0,0 2.25099998,-2.358 4.27399998,-1.177 2.024,1.181 4.221,1.537 4.124,0.965 -0.098,-0.57 -0.117,-3.79099999 -4.191,-4.13599999 -3.57499998,0.001 -4.20799998,3.36699999 -4.20699998,4.34799999 z" style="fill: black; stroke-width: 0.5px; stroke: black;"/></g><rect class="djs-hit djs-hit-all" x="0" y="0" width="100" height="80" style="fill: none; stroke-opacity: 0; stroke: white; stroke-width: 15px;"/><rect x="-6" y="-6" width="112" height="92" class="djs-outline" style="fill: none;"/></g></g><g class="djs-group"><g class="djs-element djs-shape" data-element-id="PlanItem_0ifezwi" style="display: block;" transform="matrix(1 0 0 1 639 114)"><g class="djs-visual"><rect x="0" y="0" width="100" height="80" rx="10" ry="10" style="stroke: black; stroke-width: 2px; fill: white; stroke-dasharray: 12, 12.4; stroke-dashoffset: 13.6;"/><text class="djs-label" style="font-family: Arial, sans-serif; font-size: 12px;"><tspan x="7.640625" y="36.59765625">Take prescribed</tspan><tspan x="34.7890625" y="50.20703125">drugs</tspan></text><path d="m 15,12 c 0.909,-0.845 1.594,-2.049 1.594,-3.385 0,-2.554 -1.805,-4.62199999 -4.357,-4.62199999 -2.55199998,0 -4.28799998,2.06799999 -4.28799998,4.62199999 0,1.348 0.974,2.562 1.89599998,3.405 -0.52899998,0.187 -5.669,2.097 -5.794,4.7560005 v 6.718 h 17 v -6.718 c 0,-2.2980005 -5.5279996,-4.5950005 -6.0509996,-4.7760005 zm -8,6 l 0,5.5 m 11,0 l 0,-5" style="fill: none; stroke-width: 0.5px; stroke: black;"/><path d="m 15,12 m 2.162,1.009 c 0,2.4470005 -2.158,4.4310005 -4.821,4.4310005 -2.66499998,0 -4.822,-1.981 -4.822,-4.4310005" style="fill: none; stroke-width: 0.5px; stroke: black;"/><path d="m 15,12 m -6.9,-3.80 c 0,0 2.25099998,-2.358 4.27399998,-1.177 2.024,1.181 4.221,1.537 4.124,0.965 -0.098,-0.57 -0.117,-3.79099999 -4.191,-4.13599999 -3.57499998,0.001 -4.20799998,3.36699999 -4.20699998,4.34799999 z" style="fill: black; stroke-width: 0.5px; stroke: black;"/></g><rect class="djs-hit djs-hit-all" x="0" y="0" width="100" height="80" style="fill: none; stroke-opacity: 0; stroke: white; stroke-width: 15px;"/><rect x="-6" y="-6" width="112" height="92" class="djs-outline" style="fill: none;"/></g></g><g class="djs-group"><g class="djs-element djs-shape" data-element-id="EntryCriterion_0b14j8t" style="display: block;" transform="matrix(1 0 0 1 428 140)"><g class="djs-visual"><polygon points="10,0 20,14 10,28 0,14" style="stroke: black; stroke-width: 2px; fill: white;"/></g><rect class="djs-hit djs-hit-all" x="0" y="0" width="20" height="28" style="fill: none; stroke-opacity: 0; stroke: white; stroke-width: 15px;"/><rect x="-6" y="-6" width="32" height="40" class="djs-outline" style="fill: none;"/></g></g><g class="djs-group"><g class="djs-element djs-shape" data-element-id="EntryCriterion_1d2o93k" style="display: block;" transform="matrix(1 0 0 1 629 143)"><g class="djs-visual"><polygon points="10,0 20,14 10,28 0,14" style="stroke: black; stroke-width: 2px; fill: white;"/></g><rect class="djs-hit djs-hit-all" x="0" y="0" width="20" height="28" style="fill: none; stroke-opacity: 0; stroke: white; stroke-width: 15px;"/><rect x="-6" y="-6" width="32" height="40" class="djs-outline" style="fill: none;"/></g></g><g class="djs-group"><g class="djs-element djs-shape" data-element-id="CaseFileItemOnPart_0po2geb_di_label" style="display: block;" transform="matrix(1 0 0 1 399 365)"><g class="djs-visual"><text class="djs-label" transform="translate(-25.046875,0)" style="font-family: Arial, sans-serif; font-size: 11px;"><tspan x="25.046875" y="9.01171875">[update]</tspan></text></g><rect class="djs-hit djs-hit-all" x="0" y="0" width="40" height="13" style="fill: none; stroke-opacity: 0; stroke: white; stroke-width: 15px;"/><rect x="-6" y="-6" width="52" height="25" class="djs-outline" style="fill: none;"/></g></g><g class="djs-group"><g class="djs-element djs-shape" data-element-id="PlanItemOnPart_0lhzseu_di_label" style="display: block;" transform="matrix(1 0 0 1 331 172.5)"><g class="djs-visual"><text class="djs-label" transform="translate(-19.546875,0)" style="font-family: Arial, sans-serif; font-size: 11px;"><tspan x="19.5546875" y="9.01171875">[complete]</tspan></text></g><rect class="djs-hit djs-hit-all" x="0" y="0" width="51" height="13" style="fill: none; stroke-opacity: 0; stroke: white; stroke-width: 15px;"/><rect x="-6" y="-6" width="63" height="25" class="djs-outline" style="fill: none;"/></g></g><g class="djs-group"><g class="djs-element djs-shape" data-element-id="PlanItemOnPart_0v1lyvs_di_label" style="display: block;" transform="matrix(1 0 0 1 558 145.5)"><g class="djs-visual"><text class="djs-label" transform="translate(-19.546875,0)" style="font-family: Arial, sans-serif; font-size: 11px;"><tspan x="19.5546875" y="9.01171875">[complete]</tspan></text></g><rect class="djs-hit djs-hit-all" x="0" y="0" width="51" height="13" style="fill: none; stroke-opacity: 0; stroke: white; stroke-width: 15px;"/><rect x="-6" y="-6" width="63" height="25" class="djs-outline" style="fill: none;"/></g></g><g class="djs-group"><g class="djs-element djs-connection" data-element-id="CaseFileItemOnPart_0po2geb_di" style="display: block;"><g class="djs-visual"><path d="m  353,428L419,428 L419,322 L484,322 " style="fill: none; stroke-width: 1.5px; stroke: black; stroke-dasharray: 10, 5, 2, 5, 2, 5;"/></g><polyline points="353,428 419,428 419,322 484,322 " class="djs-hit djs-hit-stroke" style="fill: none; stroke-opacity: 0; stroke: white; stroke-width: 15px;"/><rect x="347" y="316" width="143" height="118" class="djs-outline" style="fill: none;"/></g></g><g class="djs-group"><g class="djs-element djs-connection" data-element-id="CMMNEdge_09d07au" style="display: block;"><g class="djs-visual"><path d="m  286,211L339,211 L339,349 L400,349 " style="fill: none; stroke-width: 1px; stroke: black; stroke-dasharray: 3, 5;"/></g><polyline points="286,211 339,211 339,349 400,349 " class="djs-hit djs-hit-stroke" style="fill: none; stroke-opacity: 0; stroke: white; stroke-width: 15px;"/><rect x="280" y="205" width="126" height="150" class="djs-outline" style="fill: none;"/></g></g><g class="djs-group"><g class="djs-element djs-connection" data-element-id="PlanItemOnPart_0lhzseu_di" style="display: block;"><g class="djs-visual"><path d="m  286,211L357,211 L357,154 L428,154 " style="fill: none; stroke-width: 1.5px; stroke: black; stroke-dasharray: 10, 5, 2, 5, 2, 5;"/></g><polyline points="286,211 357,211 357,154 428,154 " class="djs-hit djs-hit-stroke" style="fill: none; stroke-opacity: 0; stroke: white; stroke-width: 15px;"/><rect x="280" y="148" width="154" height="69" class="djs-outline" style="fill: none;"/></g></g><g class="djs-group"><g class="djs-element djs-connection" data-element-id="PlanItemOnPart_0v1lyvs_di" style="display: block;"><g class="djs-visual"><path d="m  538,154L584,154 L584,157 L629,157 " style="fill: none; stroke-width: 1.5px; stroke: black; stroke-dasharray: 10, 5, 2, 5, 2, 5;"/></g><polyline points="538,154 584,154 584,157 629,157 " class="djs-hit djs-hit-stroke" style="fill: none; stroke-opacity: 0; stroke: white; stroke-width: 15px;"/><rect x="532" y="148" width="103" height="15" class="djs-outline" style="fill: none;"/></g></g></g></g></svg>