<?xml version="1.0" ?><!DOCTYPE svg  PUBLIC '-//W3C//DTD SVG 1.1//EN'  'http://www.w3.org/Graphics/SVG/1.1/DTD/svg11.dtd'><svg enable-background="new 0 0 96 96" height="96px" id="Layer_1" version="1.1" viewBox="0 0 96 96" width="96px" xml:space="preserve" xmlns="http://www.w3.org/2000/svg" xmlns:xlink="http://www.w3.org/1999/xlink"><path d="M72,63H42v6h30V63z M72,75H42v6h30V75z M72,27H42v6h30V27z M72,39H42v6h30V39z M72,51H42v6h30V51z M36,51H24v6h12V51z M81,3  H15c-1.657,0-3,1.343-3,3v84c0,1.657,1.343,3,3,3h66c1.657,0,3-1.343,3-3V6C84,4.343,82.657,3,81,3z M78,87H18V9h60V87z M36,39H24v6  h12V39z M36,27c0-1.938-1.231-3.576-2.95-4.209c0.886-0.821,1.45-1.986,1.45-3.291c0-2.486-2.015-4.5-4.5-4.5s-4.5,2.014-4.5,4.5  c0,1.305,0.563,2.47,1.45,3.291C25.231,23.424,24,25.062,24,27v6h12V27z"/></svg>