<?xml version="1.0" encoding="UTF-8" standalone="no"?>
<!-- Created with Inkscape (http://www.inkscape.org/) -->

<svg
   xmlns:dc="http://purl.org/dc/elements/1.1/"
   xmlns:cc="http://creativecommons.org/ns#"
   xmlns:rdf="http://www.w3.org/1999/02/22-rdf-syntax-ns#"
   xmlns:svg="http://www.w3.org/2000/svg"
   xmlns="http://www.w3.org/2000/svg"
   xmlns:sodipodi="http://sodipodi.sourceforge.net/DTD/sodipodi-0.dtd"
   xmlns:inkscape="http://www.inkscape.org/namespaces/inkscape"
   width="18.841274mm"
   height="11.686205mm"
   viewBox="0 0 18.841274 11.686205"
   version="1.1"
   id="svg4535"
   inkscape:version="0.92.3 (2405546, 2018-03-11)"
   sodipodi:docname="logo.svg"
   inkscape:export-filename="C:\Users\Thierry\Desktop\logo.png"
   inkscape:export-xdpi="101"
   inkscape:export-ydpi="101">
  <defs
     id="defs4529" />
  <sodipodi:namedview
     id="base"
     pagecolor="#ffffff"
     bordercolor="#666666"
     borderopacity="1.0"
     inkscape:pageopacity="0.0"
     inkscape:pageshadow="2"
     inkscape:zoom="11.313708"
     inkscape:cx="21.717013"
     inkscape:cy="16.409467"
     inkscape:document-units="mm"
     inkscape:current-layer="g5325"
     showgrid="false"
     inkscape:window-width="1920"
     inkscape:window-height="1001"
     inkscape:window-x="-9"
     inkscape:window-y="-9"
     inkscape:window-maximized="1" />
  <metadata
     id="metadata4532">
    <rdf:RDF>
      <cc:Work
         rdf:about="">
        <dc:format>image/svg+xml</dc:format>
        <dc:type
           rdf:resource="http://purl.org/dc/dcmitype/StillImage" />
        <dc:title />
      </cc:Work>
    </rdf:RDF>
  </metadata>
  <g
     inkscape:label="Calque 1"
     inkscape:groupmode="layer"
     id="layer1"
     transform="translate(-0.6198944,-1.8181521)">
    <g
       id="g5325"
       transform="matrix(0.67495159,-0.24820268,0.26411513,0.71822323,-3.840307,4.1983703)">
      <g
         id="g5526"
         transform="matrix(0.97920608,-0.19064564,0.21587409,0.97920608,-8.23446,14.690472)">
        <rect
           transform="matrix(0.94515397,0.32662511,-0.36440372,0.93124107,0,0)"
           y="-13.088551"
           x="11.498672"
           height="10.937207"
           width="24.193453"
           id="rect5454"
           style="fill:#9575cd;fill-opacity:1;stroke:none;stroke-width:0.34811786;stroke-miterlimit:4;stroke-dasharray:none;stroke-opacity:1;paint-order:stroke fill markers" />
        <path
           sodipodi:nodetypes="cccccccc"
           inkscape:connector-curvature="0"
           d="m 17.164544,-8.7736265 c -0.0012,4.566e-4 -0.0024,0.00122 -0.0037,0.0016 -0.01629,0.00734 0.003,-0.00142 -0.0155,0.00831 -0.533565,0.2365149 0.01919,-0.00991 -0.533565,0.2365149 l -0.538927,1.3772397 2.115685,0.731136 0.689718,-1.7625879 z"
           style="fill:#9575cd;fill-opacity:1;stroke:none;stroke-width:0.04402201;stroke-miterlimit:4;stroke-dasharray:none;stroke-opacity:1;paint-order:stroke fill markers"
           id="rect5454-1" />
      </g>
      <path
         style="fill:none;fill-opacity:1;stroke:#ffffff;stroke-width:0.35722202;stroke-linecap:butt;stroke-linejoin:miter;stroke-miterlimit:4;stroke-dasharray:none;stroke-opacity:1"
         d="m 10.68114,10.80816 2.527729,1.041893 -0.04438,0.0782 -0.07678,0.137514 -0.07998,0.137849 -0.139905,0.204917 -0.08247,0.116839 -0.117723,0.152145 -0.140219,0.15876 -0.150296,0.161034 -0.225501,0.208434 -0.190406,0.150051 -0.382333,0.249212 -0.273952,0.129962 -0.238434,0.09465 -0.290023,0.09921 -0.342735,0.07896 -0.192,0.03133 -0.3097401,0.03338 -0.2737181,0.01327 -0.39931,-0.01996 -0.388086,-0.04864 -0.402166,-0.09014 -0.244058,-0.06806 -0.226497,-0.0742 -0.198191,-0.0746 -0.239764,-0.101173 -0.278531,-0.134922 -0.268402,-0.149736 -0.254262,-0.16927 -0.150132,-0.108864 -0.31325,-0.273093 -0.185922,-0.194495 -0.154699,-0.18574 -0.192089,-0.261747 -0.188211,-0.32146 -0.182847,-0.407114 -0.168166,-0.522109 -0.06178,-0.550468 -0.02398,-0.4478588 0.06301,-0.670148 0.161757,-0.701144 0.314263,-0.803106 0.226936,-0.491393 0.256669,-0.456698 0.231073,-0.302738 0.314118,-0.404284 0.507582,-0.500231 0.534166,-0.368941 0.442703,-0.245884 0.614949,-0.243341 0.791678,-0.141566 0.7034632,0.03959 0.742058,0.118055 0.478521,0.160033 0.499235,0.195549 0.652362,0.352075 0.419244,0.306051 0.303399,0.289041 0.309978,0.366143 0.266329,0.477692 0.205379,0.617797 0.08469,0.581848 0.0093,0.383122 -0.04368,0.502947 -0.08121,0.426663 -0.08723,0.332485 -2.706142,-0.785528 0.172859,-0.504354 0.04772,-0.403699 -0.01434,-0.229442 -0.0518,-0.196337 -0.08615,-0.202454 -0.139238,-0.192018 -0.153127,-0.156526 -0.135199,-0.09277 -0.199075,-0.08606 -0.350947,-0.05796 -0.299219,0.02898 -0.3005771,0.126368 -0.3701791,0.286998 -0.314118,0.404283 -0.243871,0.379718 -0.277886,0.555189 -0.291816,0.745741 -0.157032,0.556252 -0.08969,0.3841578 c 0,0 -0.04829,0.455447 -0.04425,0.489403 0.004,0.03396 0.03948,0.209011 0.03948,0.209011 l 0.04588,0.17052 0.116573,0.21123 0.163141,0.202903 0.191201,0.131197 0.316879,0.142069 0.322048,0.06245 0.352913,-0.01643 0.2713411,-0.117877 0.2444141,-0.159744 0.202226,-0.206883 0.164074,-0.220069 0.125135,-0.209104 z"
         id="path5438"
         inkscape:connector-curvature="0" />
      <path
         id="path5442"
         transform="matrix(0.345308,0.1193311,-0.12698151,0.32450382,6.9633521,-0.90765032)"
         style="fill:none;fill-opacity:1;stroke:#ffffff;stroke-width:0.97584486px;stroke-linecap:butt;stroke-linejoin:miter;stroke-opacity:1"
         d="m 43.078125,11.755859 -10.628906,0.06445 -0.002,25.353516 6.125,0.01367 -0.0078,-18.123047 4.992417,17.383408 5.692498,-1.164679 4.557273,-16.255843 0.02148,15.310546 7.603511,-1.589809 L 61.415988,11.7969 50.658175,11.77737 46.966769,25.244167 Z m 18.34575,23.248139 c -0.01554,0.0037 -0.03131,0.0061 -0.04687,0.0098 0.0046,5.11e-4 0.0091,-5.26e-4 0.01367,0 0.0044,-0.0011 0.0094,-0.0028 0.01367,-0.0039 0.0064,-0.0016 0.01309,-0.0023 0.01953,-0.0039 z m -3.689455,1.74431 c 2.4e-5,0.0026 -3.6e-5,0.0052 0,0.0078 l 0.02148,-0.0059 c -0.0071,-5.87e-4 -0.01439,-0.0013 -0.02148,-0.002 z"
         inkscape:connector-curvature="0"
         sodipodi:nodetypes="ccccccccccccccccccccccccc" />
    </g>
  </g>
</svg>
