<?xml version="1.0" encoding="UTF-8" standalone="no"?>
<!-- Generated by IcoMoon.io -->

<svg
   xmlns:dc="http://purl.org/dc/elements/1.1/"
   xmlns:cc="http://creativecommons.org/ns#"
   xmlns:rdf="http://www.w3.org/1999/02/22-rdf-syntax-ns#"
   xmlns:svg="http://www.w3.org/2000/svg"
   xmlns="http://www.w3.org/2000/svg"
   xmlns:sodipodi="http://sodipodi.sourceforge.net/DTD/sodipodi-0.dtd"
   xmlns:inkscape="http://www.inkscape.org/namespaces/inkscape"
   version="1.1"
   width="16"
   height="16"
   viewBox="0 0 16 16"
   id="svg902"
   sodipodi:docname="submit.svg"
   inkscape:version="0.92.3 (2405546, 2018-03-11)">
  <metadata
     id="metadata908">
    <rdf:RDF>
      <cc:Work
         rdf:about="">
        <dc:format>image/svg+xml</dc:format>
        <dc:type
           rdf:resource="http://purl.org/dc/dcmitype/StillImage" />
      </cc:Work>
    </rdf:RDF>
  </metadata>
  <defs
     id="defs906" />
  <sodipodi:namedview
     pagecolor="#ffffff"
     bordercolor="#666666"
     borderopacity="1"
     objecttolerance="10"
     gridtolerance="10"
     guidetolerance="10"
     inkscape:pageopacity="0"
     inkscape:pageshadow="2"
     inkscape:window-width="2100"
     inkscape:window-height="1234"
     id="namedview904"
     showgrid="false"
     inkscape:zoom="35.708892"
     inkscape:cx="12.593667"
     inkscape:cy="2.0986785"
     inkscape:window-x="2391"
     inkscape:window-y="-9"
     inkscape:window-maximized="1"
     inkscape:current-layer="text912" />
  <path
     fill="#444444"
     d="M16 5c0-0.6-0.4-1-1-1h-14c-0.6 0-1 0.4-1 1v6c0 0.6 0.4 1 1 1h14c0.6 0 1-0.4 1-1v-6zM15 11h-14v-6h14v6z"
     id="path898" />
  <g
     aria-label="Submit"
     transform="scale(0.93693544,1.0673094)"
     style="font-style:normal;font-weight:normal;font-size:3.87961078px;line-height:1.25;font-family:sans-serif;letter-spacing:0px;word-spacing:0px;fill:#444444;fill-opacity:1;stroke:none;stroke-width:0.72742701"
     id="text912">
    <path
       d="m 4.0304729,8.0640952 q 0,0.1648077 -0.077668,0.3258267 -0.075774,0.161019 -0.2140605,0.2727851 -0.1515473,0.1212379 -0.3542418,0.1894341 -0.2008002,0.068196 -0.4849514,0.068196 -0.3049889,0 -0.5493589,-0.05683 Q 2.1077166,8.806677 1.8557692,8.6949108 V 8.2251142 H 1.88229 q 0.2140606,0.1780681 0.4944231,0.2746795 0.2803625,0.096611 0.5266268,0.096611 0.3485588,0 0.5417816,-0.1307096 0.1951171,-0.1307095 0.1951171,-0.3485587 0,-0.1875398 -0.092823,-0.2765739 Q 3.4564876,7.7515289 3.2689478,7.702276 3.1268722,7.6643892 2.9601702,7.6397628 2.7953625,7.6151363 2.609717,7.5772495 2.2346375,7.4976872 2.0527807,7.3063587 1.8728183,7.1131359 1.8728183,6.8043583 q 0,-0.3542418 0.2993059,-0.5796684 Q 2.4714301,5.997369 2.931755,5.997369 q 0.2974116,0 0.5455703,0.05683 0.2481587,0.05683 0.4394872,0.1401812 V 6.6376563 H 3.8902917 Q 3.7292727,6.5012637 3.4659593,6.4122297 3.2045402,6.3213013 2.9298607,6.3213013 q -0.3012003,0 -0.4849513,0.1250265 -0.1818568,0.1250265 -0.1818568,0.322038 0,0.1761738 0.090928,0.2765738 0.090928,0.1004001 0.3201436,0.1534417 0.1212379,0.026521 0.3447701,0.064408 0.2235323,0.037887 0.3788683,0.077668 0.3144606,0.083351 0.4735853,0.2519473 0.1591246,0.1685964 0.159125,0.4716906 z"
       style="fill:#444444;fill-opacity:1;stroke-width:0.72742701"
       id="path906"
       inkscape:connector-curvature="0" />
    <path
       d="M 6.3586183,8.8691902 H 6.0024821 V 8.6342919 Q 5.8225197,8.7763675 5.657712,8.8521411 q -0.1648077,0.075774 -0.3637135,0.075774 -0.333404,0 -0.5190495,-0.2026945 Q 4.5893036,8.5206314 4.5893036,8.1266085 V 6.7532111 h 0.3561361 v 1.204801 q 0,0.161019 0.015155,0.2765738 0.015155,0.1136605 0.064408,0.1951172 0.051147,0.083351 0.1326038,0.1212378 0.081457,0.037887 0.2367927,0.037887 0.1382869,0 0.3012002,-0.071985 0.1648077,-0.071985 0.3068833,-0.1837511 V 6.7532111 h 0.3561362 z"
       style="fill:#444444;fill-opacity:1;stroke-width:0.72742701"
       id="path908"
       inkscape:connector-curvature="0" />
    <path
       d="m 8.9216619,7.7950988 q 0,0.2652077 -0.075774,0.4773739 Q 8.772009,8.484639 8.6450881,8.6286089 8.5105899,8.7782618 8.3495709,8.8540355 q -0.161019,0.073879 -0.3542418,0.073879 -0.1799624,0 -0.3144607,-0.04357 -0.1344982,-0.041675 -0.2652077,-0.11366 l -0.022732,0.098506 H 7.0595245 V 5.9215953 H 7.4156607 V 6.974849 Q 7.5653136,6.8517168 7.73391,6.7740488 q 0.1685964,-0.079562 0.3788682,-0.079562 0.3750796,0 0.5910345,0.2879399 0.2178492,0.2879398 0.2178492,0.8126721 z m -0.3675022,0.00947 q 0,-0.3788683 -0.1250265,-0.5739854 -0.1250265,-0.1970115 -0.4034947,-0.1970115 -0.1553359,0 -0.3144606,0.068196 -0.1591247,0.066302 -0.2955172,0.172385 v 1.2123784 q 0.1515473,0.068196 0.2595247,0.094717 0.1098718,0.026521 0.2481587,0.026521 0.2955172,0 0.4622193,-0.1932228 0.1685963,-0.1951171 0.1685963,-0.6099777 z"
       style="fill:#444444;fill-opacity:1;stroke-width:0.72742701"
       id="path910"
       inkscape:connector-curvature="0" />
    <path
       d="m 12.56448,8.8691902 h -0.356136 v -1.204801 q 0,-0.1363926 -0.01326,-0.2633134 -0.01137,-0.1269209 -0.05115,-0.2026945 -0.04357,-0.081457 -0.125027,-0.1231322 -0.08146,-0.041675 -0.234898,-0.041675 -0.149653,0 -0.299306,0.075774 -0.149653,0.073879 -0.299306,0.1894342 0.0057,0.04357 0.0095,0.1022944 0.0038,0.05683 0.0038,0.1136605 v 1.3544539 h -0.356136 v -1.204801 q 0,-0.1401812 -0.01326,-0.2652078 -0.01137,-0.1269208 -0.05115,-0.2026945 -0.04357,-0.081457 -0.125027,-0.1212378 -0.08146,-0.041675 -0.234898,-0.041675 -0.145865,0 -0.293623,0.071985 Q 9.9787385,7.177545 9.8328742,7.2893111 V 8.8691902 H 9.4767041 V 6.7532111 H 9.8328402 V 6.9881094 Q 9.9995423,6.8498225 10.16435,6.7721545 q 0.166702,-0.077668 0.354242,-0.077668 0.215955,0 0.365608,0.090928 0.151547,0.090928 0.225426,0.2519474 0.215955,-0.1818568 0.394023,-0.2614191 0.178068,-0.081457 0.380763,-0.081457 0.348559,0 0.513366,0.2121662 0.166702,0.2102719 0.166702,0.5891401 z"
       style="fill:#444444;fill-opacity:1;stroke-width:0.72742701"
       id="path912"
       inkscape:connector-curvature="0" />
    <path
       d="m 13.632888,6.3989693 h -0.4016 V 6.0295728 h 0.4016 z m -0.02273,2.4702209 H 13.25402 V 6.7532111 h 0.356136 z"
       style="fill:#444444;fill-opacity:1;stroke-width:0.72742701"
       id="path914"
       inkscape:connector-curvature="0" />
    <path
       d="m 15.417358,8.8502468 q -0.1004,0.026521 -0.219743,0.04357 -0.11745,0.017049 -0.210272,0.017049 -0.323933,0 -0.492529,-0.1742794 Q 14.326218,8.5623069 14.326218,8.1777557 V 7.052517 H 14.085636 V 6.7532111 h 0.240582 V 6.1451276 h 0.356136 v 0.6080835 h 0.735004 V 7.052517 h -0.735004 v 0.9642197 q 0,0.166702 0.0076,0.2614191 0.0076,0.092823 0.05304,0.1742794 0.04168,0.075774 0.11366,0.1117661 0.07388,0.034098 0.223532,0.034098 0.08714,0 0.181857,-0.024626 0.09472,-0.026521 0.136393,-0.04357 h 0.01894 z"
       style="fill:#444444;fill-opacity:1;stroke-width:0.72742701"
       id="path916"
       inkscape:connector-curvature="0" />
  </g>
</svg>
