<svg enable-background="new 0 0 24 24" height="512" viewBox="0 0 24 24" width="512" xmlns="http://www.w3.org/2000/svg"><path d="m22.5 24h-8c-.827 0-1.5-.673-1.5-1.5v-21c0-.827.673-1.5 1.5-1.5h8c.827 0 1.5.673 1.5 1.5v21c0 .827-.673 1.5-1.5 1.5zm-8-23c-.276 0-.5.224-.5.5v21c0 .276.224.5.5.5h8c.276 0 .5-.224.5-.5v-21c0-.276-.224-.5-.5-.5z"/><path d="m9.5 24h-8c-.827 0-1.5-.673-1.5-1.5v-21c0-.827.673-1.5 1.5-1.5h8c.827 0 1.5.673 1.5 1.5v21c0 .827-.673 1.5-1.5 1.5zm-8-23c-.276 0-.5.224-.5.5v21c0 .276.224.5.5.5h8c.276 0 .5-.224.5-.5v-21c0-.276-.224-.5-.5-.5z"/></svg>